<svg width="232" height="335" viewBox="0 0 232 335" fill="none" xmlns="http://www.w3.org/2000/svg">
<path d="M49.0259 327.62H34.1169L30.7721 334.859H29.4556L40.9843 310.141H42.1585L53.6872 334.859H52.3706L49.0259 327.62ZM48.5633 326.596L41.5892 311.518L34.5794 326.596H48.5633Z" fill="black"/>
<path d="M62.0949 310.141H63.3047V334.859H62.0949V310.141Z" fill="black"/>
<path d="M99.7069 334.859L99.6714 312.578L88.7475 331.434H88.1071L77.1477 312.648V334.859H75.9735V310.141H76.9698L88.4273 329.915L99.8493 310.141H100.846L100.881 334.859H99.7069Z" fill="black"/>
<path d="M113.55 310.141H114.76V334.859H113.55V310.141Z" fill="black"/>
<path d="M147.32 310.141V334.859H146.323L128.639 312.331V334.859H127.429V310.141H128.425L146.11 332.669V310.141H147.32Z" fill="black"/>
<path d="M178.007 322.677H179.146V331.822C178.054 332.858 176.75 333.646 175.231 334.188C173.737 334.729 172.136 335 170.428 335C167.984 335 165.778 334.459 163.809 333.376C161.841 332.293 160.287 330.798 159.148 328.891C158.033 326.984 157.476 324.854 157.476 322.5C157.476 320.146 158.033 318.016 159.148 316.109C160.287 314.202 161.841 312.707 163.809 311.624C165.778 310.541 167.984 310 170.428 310C172.207 310 173.844 310.271 175.338 310.812C176.833 311.354 178.114 312.166 179.181 313.249L178.469 314.061C176.406 312.083 173.737 311.095 170.463 311.095C168.234 311.095 166.217 311.601 164.414 312.613C162.635 313.602 161.236 314.967 160.216 316.709C159.196 318.451 158.686 320.381 158.686 322.5C158.686 324.619 159.196 326.549 160.216 328.291C161.236 330.033 162.635 331.41 164.414 332.422C166.217 333.411 168.234 333.905 170.463 333.905C173.571 333.905 176.085 333.046 178.007 331.328V322.677Z" fill="black"/>
<path d="M228.79 310.141H230V334.859H228.79V310.141Z" fill="black"/>
<path fill-rule="evenodd" clip-rule="evenodd" d="M204.622 310.337H205.61V331.098C205.61 332.181 206.085 332.819 206.667 333.206C207.276 333.611 208.024 333.752 208.518 333.752H222.552L222.555 334.733L222.552 334.733L204.622 334.862V310.337Z" fill="black"/>
<path fill-rule="evenodd" clip-rule="evenodd" d="M2 310.337H2.9884V319.389C2.9884 320.485 3.49539 321.14 4.13336 321.542C4.79796 321.961 5.61542 322.108 6.15851 322.108H17.6095C18.9386 322.108 19.7095 321.63 20.158 321.085C20.6234 320.519 20.7796 319.832 20.7796 319.389V310.337H21.768V334.859H20.7796V325.478C20.7796 324.539 20.2993 323.965 19.6549 323.6C18.9862 323.222 18.161 323.089 17.6095 323.089H6.15851C4.81075 323.089 4.03531 323.525 3.59274 324.008C3.13626 324.506 2.9884 325.104 2.9884 325.478V334.859H2V310.337Z" fill="black"/>
<path fill-rule="evenodd" clip-rule="evenodd" d="M0.5 0H3.5V108.154C3.5 122.903 10.5832 132.039 19.4739 137.556C28.4447 143.124 39.2725 145 46.4878 145H185.512C202.906 145 213.589 138.775 219.951 131.159C226.363 123.484 228.5 114.255 228.5 108.154V0H231.5V293H228.5V180.913C228.5 167.817 221.501 159.657 212.587 154.693C203.603 149.69 192.752 148 185.512 148H46.4878C29.0393 148 18.3406 153.61 11.9955 160.427C5.61062 167.286 3.5 175.51 3.5 180.913V293H0.5V0Z" fill="black"/>
</svg>
